<?xml version="1.0" standalone="no"?>
<!DOCTYPE svg PUBLIC "-//W3C//DTD SVG 20010904//EN"
 "http://www.w3.org/TR/2001/REC-SVG-20010904/DTD/svg10.dtd">
<svg version="1.0" xmlns="http://www.w3.org/2000/svg"
 width="960.000000pt" height="960.000000pt" viewBox="0 0 960.000000 960.000000"
 preserveAspectRatio="xMidYMid meet">
<metadata>
Created by potrace 1.11, written by Peter Selinger 2001-2013
</metadata>
<g transform="translate(0.000000,960.000000) scale(0.100000,-0.100000)"
fill="#000000" stroke="none">
<path d="M1602 8782 c-9 -3 -12 -480 -12 -2003 l0 -1999 288 0 288 0 -1 1551
c0 853 3 1555 6 1560 5 9 43 -34 102 -114 16 -21 39 -51 52 -65 12 -15 114
-142 225 -282 111 -140 214 -269 229 -286 14 -16 31 -37 36 -46 8 -12 129
-166 268 -338 7 -8 22 -28 35 -45 13 -16 36 -46 52 -65 15 -19 60 -75 99 -125
144 -182 143 -181 194 -177 49 4 29 -16 234 242 6 8 49 62 95 119 46 57 103
130 128 161 58 75 254 323 277 351 10 11 25 29 33 39 8 10 42 53 75 95 33 43
67 86 75 94 8 9 55 68 105 131 49 63 94 120 100 127 5 6 42 52 80 101 39 50
73 91 78 91 4 1 7 -393 7 -875 l0 -877 -41 -46 c-48 -55 -50 -57 -74 -98 -11
-18 -23 -33 -27 -33 -4 0 -8 -4 -8 -10 0 -5 -15 -31 -34 -57 -19 -27 -54 -88
-78 -138 -24 -49 -50 -101 -58 -115 -42 -77 -126 -358 -146 -490 -3 -19 -7
-42 -9 -50 -6 -24 -21 -202 -24 -287 l-1 -33 -447 0 -448 0 2 -207 c1 -115 2
-231 2 -259 l1 -51 476 0 477 0 29 -89 c15 -49 31 -96 35 -104 3 -8 7 -17 8
-20 20 -80 185 -393 225 -430 3 -3 17 -21 30 -40 14 -19 43 -57 65 -85 l40
-50 0 -1335 0 -1335 282 0 c155 1 285 4 288 7 3 3 6 504 6 1112 l0 1107 22 -7
c12 -4 58 -24 102 -45 96 -46 331 -122 413 -134 33 -5 72 -12 137 -26 84 -17
219 -24 450 -24 220 0 359 9 480 30 17 2 48 7 70 11 70 10 262 53 352 78 154
43 453 152 488 176 6 4 22 10 38 14 l27 6 0 128 c0 70 1 451 1 847 l1 720
-1286 3 c-707 1 -1287 5 -1287 10 -1 4 -2 261 -3 571 l-1 565 39 35 c21 20 44
41 51 48 23 22 210 139 245 153 19 8 37 17 40 20 15 18 261 103 332 114 21 3
57 10 80 15 61 14 206 24 323 23 89 -1 128 -3 255 -17 32 -3 221 -33 245 -39
6 -1 26 -6 45 -10 53 -12 252 -67 275 -76 11 -4 49 -18 85 -31 95 -33 277
-113 386 -169 l94 -49 0 292 0 292 -103 39 c-56 22 -120 47 -142 57 -102 45
-474 164 -545 174 -14 2 -47 8 -75 14 -99 21 -153 29 -255 40 -78 8 -505 7
-575 -2 -25 -4 -107 -18 -125 -22 -3 -1 -39 -7 -80 -14 -149 -26 -367 -102
-551 -190 -24 -12 -43 -21 -43 -21 -1 0 -1 489 -1 1088 l0 1087 -265 0 c-230
1 -266 -1 -280 -15 -17 -19 -38 -44 -95 -115 -22 -27 -47 -59 -57 -70 -42 -51
-256 -316 -377 -465 -73 -91 -146 -181 -162 -200 -61 -74 -179 -219 -236 -290
-15 -20 -34 -42 -41 -50 -7 -8 -58 -71 -113 -140 -56 -69 -108 -134 -118 -145
-9 -11 -38 -48 -65 -82 -27 -35 -53 -63 -57 -63 -4 0 -58 62 -119 138 -61 75
-116 144 -123 152 -7 8 -30 38 -52 65 -22 28 -43 52 -46 55 -3 3 -79 97 -169
210 -90 113 -166 207 -170 210 -3 3 -19 23 -36 45 -16 22 -35 46 -42 54 -7 7
-104 126 -215 265 -111 138 -209 260 -218 271 -10 11 -45 54 -78 95 l-61 75
-258 1 c-142 0 -264 -2 -270 -4z m5710 -4511 c15 -1 17 -34 17 -410 l0 -409
-147 -41 c-368 -102 -571 -127 -887 -106 -55 3 -116 10 -135 15 -19 4 -57 11
-84 15 -69 9 -270 71 -344 106 -34 16 -65 29 -69 29 -16 0 -202 119 -269 171
l-74 59 0 284 c1 173 5 286 10 288 9 3 1939 2 1982 -1z"/>
</g>
</svg>
